<svg width="25" height="8" viewBox="0 0 25 8" fill="none" xmlns="http://www.w3.org/2000/svg">
<path fill-rule="evenodd" clip-rule="evenodd" d="M3.77738 0C1.69144 0 0 1.34113 0 2.99665C0 4.06025 0.700524 4.99389 1.75254 5.52675L1.39666 6.86118C1.39009 6.88079 1.38916 6.90186 1.39397 6.92197C1.39878 6.94209 1.40915 6.96044 1.42387 6.97491C1.44228 6.99416 1.46733 7.00561 1.49388 7.00689C1.52043 7.00817 1.54645 6.99918 1.56661 6.98178L3.09723 5.9434C3.32248 5.97627 3.54977 5.99301 3.77738 5.99348C5.8635 5.99348 7.55494 4.65217 7.55494 2.99595C7.55494 1.33972 5.8635 0 3.77738 0Z" fill="#040000"/>
<path d="M10.7375 5.48464V7.41982H9.36523V0.283925H10.3333L10.5026 0.736904C10.7938 0.44438 11.2356 0.132812 11.95 0.132812C13.294 0.132812 13.9339 1.14281 13.9236 2.77576C13.9236 4.48417 12.9369 5.57933 11.527 5.57933C11.2608 5.58297 10.9953 5.55113 10.7375 5.48464ZM10.7375 1.43515V4.52173C10.8841 4.53949 11.0316 4.54897 11.1792 4.55012C12.1566 4.55012 12.5327 3.86104 12.5327 2.77558C12.5327 1.82219 12.2788 1.24649 11.4988 1.24649C11.2451 1.24649 10.9631 1.32195 10.7375 1.43515Z" fill="#040000"/>
<path d="M16.9118 2.29439H17.6919V2.12441C17.6919 1.55805 17.3724 1.29374 16.8179 1.29374C16.395 1.29374 15.8498 1.41717 15.4081 1.6337L15.0322 0.708516C15.5208 0.368736 16.2728 0.132812 16.9401 0.132812C18.2558 0.132812 18.97 0.831239 18.97 2.16214V5.43757H18.0021L17.8617 5.00345C17.307 5.409 16.7996 5.57916 16.3391 5.57916C15.3335 5.57916 14.7695 4.97506 14.7695 3.95573C14.769 2.8708 15.5208 2.29439 16.9118 2.29439ZM17.6919 4.11618V3.17214H17.0621C16.3572 3.17214 16.0001 3.4271 16.0001 3.93668C16.0001 4.3246 16.1976 4.51256 16.6016 4.51256C16.9777 4.51256 17.457 4.32372 17.6919 4.11618Z" fill="#040000"/>
<path d="M23.1243 4.90612C22.645 6.18995 22.0717 7.12447 21.2351 7.6434L20.3892 6.85998C20.878 6.43521 21.2257 6.01997 21.5266 5.46313L19.7031 0.469947L21.0661 0.10178L22.2315 4.15127L23.3875 0.0820312L24.7314 0.459721L23.1243 4.90612Z" fill="#040000"/>
</svg>
